<svg width="34" height="34" viewBox="0 0 34 34" fill="none" xmlns="http://www.w3.org/2000/svg">
<path d="M17 24.3342V26.7871" stroke="#040618" stroke-width="1.5" stroke-linecap="round" stroke-linejoin="round"/>
<path d="M17 12.167V14.4498" stroke="#040618" stroke-width="1.5" stroke-linecap="round" stroke-linejoin="round"/>
<path d="M17 32.7614C25.5 32.7614 31.5714 29.7499 31.5714 23.0471C31.5714 15.7614 27.9286 10.9042 20.6429 7.26136L23.5086 3.56993C23.6542 3.32773 23.7331 3.05134 23.7375 2.76879C23.7418 2.48623 23.6714 2.20755 23.5333 1.96099C23.3952 1.71443 23.1944 1.50876 22.9513 1.36482C22.7081 1.22088 22.4312 1.14379 22.1486 1.14136H11.8514C11.5689 1.14379 11.292 1.22088 11.0488 1.36482C10.8056 1.50876 10.6048 1.71443 10.4667 1.96099C10.3286 2.20755 10.2582 2.48623 10.2625 2.76879C10.2669 3.05134 10.3459 3.32773 10.4914 3.56993L13.3572 7.28564C6.07145 10.9528 2.42859 15.8099 2.42859 23.0956C2.42859 29.7499 8.50002 32.7614 17 32.7614Z" stroke="#040618" stroke-width="1.5" stroke-linecap="round" stroke-linejoin="round"/>
<path d="M14.5715 23.2171C14.8678 23.5689 15.2408 23.8481 15.6617 24.0333C16.0827 24.2185 16.5405 24.3049 17 24.2857C17.7024 24.3336 18.396 24.1073 18.9349 23.6544C19.4739 23.2015 19.8162 22.5572 19.89 21.8571C19.8162 21.157 19.4739 20.5128 18.9349 20.0599C18.396 19.607 17.7024 19.3807 17 19.4286C16.2977 19.4764 15.6041 19.2501 15.0652 18.7972C14.5262 18.3443 14.1838 17.7001 14.11 17C14.1779 16.2974 14.5186 15.6495 15.059 15.1954C15.5994 14.7413 16.2963 14.5173 17 14.5714C17.4515 14.5438 17.9034 14.6166 18.3234 14.7846C18.7433 14.9525 19.1208 15.2115 19.4286 15.5429" stroke="#040618" stroke-width="1.5" stroke-linecap="round" stroke-linejoin="round"/>
</svg>
