<svg width="30" height="30" viewBox="0 0 30 30" fill="none" xmlns="http://www.w3.org/2000/svg">
<g clip-path="url(#clip0_162_23097)">
<path d="M10.7143 10.7144C13.3771 10.7144 15.5357 8.55576 15.5357 5.89296C15.5357 3.23016 13.3771 1.07153 10.7143 1.07153C8.05145 1.07153 5.89282 3.23016 5.89282 5.89296C5.89282 8.55576 8.05145 10.7144 10.7143 10.7144Z" stroke="#040618" stroke-width="1.5" stroke-linecap="round" stroke-linejoin="round"/>
<path d="M7.49998 26.7857H1.07141V23.5714C1.08847 21.9381 1.51922 20.3358 2.32342 18.9141C3.12763 17.4924 4.27905 16.2977 5.67014 15.4417C7.06123 14.5856 8.6466 14.0961 10.2782 14.0189C11.9097 13.9416 13.5342 14.2792 15 15" stroke="#040618" stroke-width="1.5" stroke-linecap="round" stroke-linejoin="round"/>
<path d="M28.9286 18.2143L18.8357 28.3072L14.2714 28.9286L14.9143 24.3643L24.9857 14.2715L28.9286 18.2143Z" stroke="#040618" stroke-width="1.5" stroke-linecap="round" stroke-linejoin="round"/>
</g>
<defs>
<clipPath id="clip0_162_23097">
<rect width="30" height="30" fill="white"/>
</clipPath>
</defs>
</svg>
