<svg width="34" height="34" viewBox="0 0 34 34" fill="none" xmlns="http://www.w3.org/2000/svg">
<path d="M25.84 3.73999H8.15997C7.75237 3.75118 7.35312 3.85814 6.99451 4.05221C6.6359 4.24628 6.32799 4.52202 6.09569 4.85713L1.67569 10.9771C1.34748 11.4409 1.18357 12.001 1.20997 12.5686C1.23637 13.1362 1.45156 13.6787 1.8214 14.11L15.0814 29.3857C15.3084 29.6782 15.5993 29.9149 15.9318 30.0778C16.2644 30.2406 16.6297 30.3253 17 30.3253C17.3702 30.3253 17.7356 30.2406 18.0681 30.0778C18.4006 29.9149 18.6915 29.6782 18.9185 29.3857L32.1785 14.11C32.5484 13.6787 32.7636 13.1362 32.79 12.5686C32.8164 12.001 32.6525 11.4409 32.3243 10.9771L27.9043 4.85713C27.672 4.52202 27.364 4.24628 27.0054 4.05221C26.6468 3.85814 26.2476 3.75118 25.84 3.73999V3.73999Z" stroke="#040618" stroke-width="1.5" stroke-linecap="round" stroke-linejoin="round"/>
<path d="M15.7371 3.71582L9.8114 12.8958L17 30.2601" stroke="#040618" stroke-width="1.5" stroke-linecap="round" stroke-linejoin="round"/>
<path d="M18.3357 3.71582L24.2371 12.8958L17 30.2601" stroke="#040618" stroke-width="1.5" stroke-linecap="round" stroke-linejoin="round"/>
<path d="M1.26282 12.8958H32.7371" stroke="#040618" stroke-width="1.5" stroke-linecap="round" stroke-linejoin="round"/>
</svg>
