<svg width="30" height="30" viewBox="0 0 30 30" fill="none" xmlns="http://www.w3.org/2000/svg">
<path d="M21.4285 3.21436H8.57138C7.38792 3.21436 6.42853 4.17375 6.42853 5.35721V16.0715C6.42853 17.255 7.38792 18.2144 8.57138 18.2144H21.4285C22.612 18.2144 23.5714 17.255 23.5714 16.0715V5.35721C23.5714 4.17375 22.612 3.21436 21.4285 3.21436Z" stroke="white" stroke-width="1.5" stroke-linecap="round" stroke-linejoin="round"/>
<path d="M6.42855 9.64282H3.21427C2.64595 9.64282 2.1009 9.86859 1.69904 10.2705C1.29718 10.6723 1.07141 11.2174 1.07141 11.7857V21.4285C1.07141 21.9969 1.29718 22.5419 1.69904 22.9438C2.1009 23.3456 2.64595 23.5714 3.21427 23.5714H26.7857C27.354 23.5714 27.8991 23.3456 28.3009 22.9438C28.7028 22.5419 28.9286 21.9969 28.9286 21.4285V11.7857C28.9286 11.2174 28.7028 10.6723 28.3009 10.2705C27.8991 9.86859 27.354 9.64282 26.7857 9.64282H23.5714" stroke="white" stroke-width="1.5" stroke-linecap="round" stroke-linejoin="round"/>
<path d="M8.57143 23.5715L7.5 28.9287" stroke="white" stroke-width="1.5" stroke-linecap="round" stroke-linejoin="round"/>
<path d="M21.4285 23.5715L22.5 28.9287" stroke="white" stroke-width="1.5" stroke-linecap="round" stroke-linejoin="round"/>
</svg>
