<svg width="24" height="24" viewBox="0 0 24 24" fill="none" xmlns="http://www.w3.org/2000/svg">
<g clip-path="url(#clip0_162_22664)">
<path d="M2.57143 10.2861H4.28572C4.51305 10.2861 4.73106 10.3764 4.89181 10.5372C5.05256 10.6979 5.14286 10.9159 5.14286 11.1433V15.429C5.14286 15.6563 5.05256 15.8743 4.89181 16.0351C4.73106 16.1958 4.51305 16.2861 4.28572 16.2861H2.57143C2.11678 16.2861 1.68074 16.1055 1.35925 15.784C1.03776 15.4625 0.857147 15.0265 0.857147 14.5718V12.0004C0.857147 11.5458 1.03776 11.1097 1.35925 10.7882C1.68074 10.4667 2.11678 10.2861 2.57143 10.2861V10.2861Z" stroke="#040618" stroke-width="1.5" stroke-linecap="round" stroke-linejoin="round"/>
<path d="M21.4286 16.2861H19.7143C19.487 16.2861 19.269 16.1958 19.1082 16.0351C18.9475 15.8743 18.8572 15.6563 18.8572 15.429V11.1433C18.8572 10.9159 18.9475 10.6979 19.1082 10.5372C19.269 10.3764 19.487 10.2861 19.7143 10.2861H21.4286C21.8832 10.2861 22.3193 10.4667 22.6408 10.7882C22.9623 11.1097 23.1429 11.5458 23.1429 12.0004V14.5718C23.1429 15.0265 22.9623 15.4625 22.6408 15.784C22.3193 16.1055 21.8832 16.2861 21.4286 16.2861V16.2861Z" stroke="#040618" stroke-width="1.5" stroke-linecap="round" stroke-linejoin="round"/>
<path d="M16.2857 21.0004C17.195 21.0004 18.0671 20.6392 18.7101 19.9962C19.3531 19.3532 19.7143 18.4812 19.7143 17.5718V16.2861" stroke="#040618" stroke-width="1.5" stroke-linecap="round" stroke-linejoin="round"/>
<path d="M14.1429 18.8574C14.7112 18.8574 15.2562 19.0832 15.6581 19.4851C16.06 19.8869 16.2857 20.432 16.2857 21.0003C16.2857 21.5686 16.06 22.1136 15.6581 22.5155C15.2562 22.9174 14.7112 23.1431 14.1429 23.1431H11.5714C11.0031 23.1431 10.4581 22.9174 10.0562 22.5155C9.65434 22.1136 9.42857 21.5686 9.42857 21.0003C9.42857 20.432 9.65434 19.8869 10.0562 19.4851C10.4581 19.0832 11.0031 18.8574 11.5714 18.8574H14.1429Z" stroke="#040618" stroke-width="1.5" stroke-linecap="round" stroke-linejoin="round"/>
<path d="M4.28572 10.286V8.57171C4.28572 6.52575 5.09847 4.56359 6.54518 3.11688C7.99189 1.67017 9.95405 0.857422 12 0.857422C14.046 0.857422 16.0081 1.67017 17.4548 3.11688C18.9015 4.56359 19.7143 6.52575 19.7143 8.57171V10.286" stroke="#040618" stroke-width="1.5" stroke-linecap="round" stroke-linejoin="round"/>
<path d="M9.42857 6.85742V9.42885" stroke="#040618" stroke-width="1.5" stroke-linecap="round" stroke-linejoin="round"/>
<path d="M14.5714 6.85742V9.42885" stroke="#040618" stroke-width="1.5" stroke-linecap="round" stroke-linejoin="round"/>
<path d="M9.42857 12.8574C9.42857 15.1374 14.5714 15.1374 14.5714 12.8574" stroke="#040618" stroke-width="1.5" stroke-linecap="round" stroke-linejoin="round"/>
</g>
<defs>
<clipPath id="clip0_162_22664">
<rect width="24" height="24" fill="white"/>
</clipPath>
</defs>
</svg>
