<svg width="40" height="40" viewBox="0 0 40 40" fill="none" xmlns="http://www.w3.org/2000/svg">
<g opacity="0.1" clip-path="url(#clip0_162_22796)">
<path d="M10.8333 35C5.77072 35 1.66667 30.8959 1.66667 25.8333C1.66666 22.094 3.61324 18.476 6.51855 17.7778C7.63922 17.5085 8.53171 16.0704 8.33994 14.4286C8.08326 12.2311 6.09606 10.011 2.16141 8.26145C1.28534 7.8719 1.65217 6.55402 2.60352 6.67313C12.8578 7.95694 19.9658 14.6421 19.9999 24.1003C20 30.6049 16.157 35 10.8333 35Z" fill="#040618"/>
<path d="M30.8335 35C25.7708 35 21.6668 30.8959 21.6668 25.8333C21.6668 22.094 23.6134 18.476 26.5187 17.7778C27.6393 17.5085 28.5318 16.0704 28.3401 14.4286C28.0834 12.2311 26.0962 10.011 22.1615 8.26145C21.2855 7.8719 21.6523 6.55402 22.6036 6.67313C32.8579 7.95694 39.9659 14.6421 40 24.1003C40.0001 30.6049 36.1571 35 30.8335 35Z" fill="#040618"/>
</g>
<defs>
<clipPath id="clip0_162_22796">
<rect width="40" height="40" fill="white" transform="translate(40 40) rotate(180)"/>
</clipPath>
</defs>
</svg>
