<svg width="30" height="30" viewBox="0 0 30 30" fill="none" xmlns="http://www.w3.org/2000/svg">
<g clip-path="url(#clip0_162_23106)">
<path d="M3.21424 28.9287L26.7857 28.9287C27.9691 28.9287 28.9285 27.9693 28.9285 26.7859L28.9285 3.21443C28.9285 2.03096 27.9691 1.07157 26.7857 1.07157L3.21424 1.07157C2.03078 1.07157 1.07139 2.03096 1.07139 3.21443L1.07139 26.7859C1.07139 27.9693 2.03078 28.9287 3.21424 28.9287Z" stroke="#040618" stroke-width="1.5" stroke-linecap="round" stroke-linejoin="round"/>
<path d="M21.4286 13.9288C21.4286 15.6337 20.7513 17.2689 19.5457 18.4745C18.3401 19.6801 16.7049 20.3574 15 20.3574C13.295 20.3574 11.6599 19.6801 10.4543 18.4745C9.24871 17.2689 8.57141 15.6337 8.57141 13.9288V9.23593C8.57105 9.05384 8.61709 8.87467 8.7052 8.71533C8.79331 8.55598 8.92058 8.42172 9.07498 8.32521C9.22939 8.22871 9.40584 8.17315 9.58769 8.16377C9.76953 8.1544 9.95076 8.19153 10.1143 8.27164L15 10.7145L19.8857 8.27164C20.0492 8.19153 20.2304 8.1544 20.4123 8.16377C20.5941 8.17315 20.7706 8.22871 20.925 8.32521C21.0794 8.42172 21.2067 8.55598 21.2948 8.71533C21.3829 8.87467 21.4289 9.05384 21.4286 9.23593V13.9288Z" stroke="#040618" stroke-width="1.5" stroke-linecap="round" stroke-linejoin="round"/>
<path d="M15 20.3572V28.9286" stroke="#040618" stroke-width="1.5" stroke-linecap="round" stroke-linejoin="round"/>
<path d="M15 28.9287L20.3571 23.5715" stroke="#040618" stroke-width="1.5" stroke-linecap="round" stroke-linejoin="round"/>
<path d="M15 28.9287L9.64282 23.5715" stroke="#040618" stroke-width="1.5" stroke-linecap="round" stroke-linejoin="round"/>
</g>
<defs>
<clipPath id="clip0_162_23106">
<rect width="30" height="30" fill="white"/>
</clipPath>
</defs>
</svg>
