<svg width="24" height="24" viewBox="0 0 24 24" fill="none" xmlns="http://www.w3.org/2000/svg">
<g clip-path="url(#clip0_162_23163)">
<path d="M2.57143 10.2856H4.28572C4.51305 10.2856 4.73106 10.376 4.89181 10.5367C5.05256 10.6974 5.14286 10.9155 5.14286 11.1428V15.4285C5.14286 15.6558 5.05256 15.8738 4.89181 16.0346C4.73106 16.1953 4.51305 16.2856 4.28572 16.2856H2.57143C2.11678 16.2856 1.68074 16.105 1.35925 15.7835C1.03776 15.4621 0.857147 15.026 0.857147 14.5714V11.9999C0.857147 11.5453 1.03776 11.1092 1.35925 10.7877C1.68074 10.4663 2.11678 10.2856 2.57143 10.2856V10.2856Z" stroke="#040618" stroke-width="1.5" stroke-linecap="round" stroke-linejoin="round"/>
<path d="M21.4286 16.2856H19.7143C19.487 16.2856 19.2689 16.1953 19.1082 16.0346C18.9474 15.8738 18.8571 15.6558 18.8571 15.4285V11.1428C18.8571 10.9155 18.9474 10.6974 19.1082 10.5367C19.2689 10.3759 19.487 10.2856 19.7143 10.2856H21.4286C21.8832 10.2856 22.3193 10.4663 22.6407 10.7877C22.9622 11.1092 23.1429 11.5453 23.1429 11.9999V14.5714C23.1429 15.026 22.9622 15.4621 22.6407 15.7835C22.3193 16.105 21.8832 16.2856 21.4286 16.2856V16.2856Z" stroke="#040618" stroke-width="1.5" stroke-linecap="round" stroke-linejoin="round"/>
<path d="M16.2857 20.9999C17.195 20.9999 18.0671 20.6387 18.7101 19.9957C19.3531 19.3527 19.7143 18.4807 19.7143 17.5714V16.2856" stroke="#040618" stroke-width="1.5" stroke-linecap="round" stroke-linejoin="round"/>
<path d="M14.1429 18.8572C14.7112 18.8572 15.2562 19.0829 15.6581 19.4848C16.06 19.8867 16.2857 20.4317 16.2857 21C16.2857 21.5684 16.06 22.1134 15.6581 22.5153C15.2562 22.9171 14.7112 23.1429 14.1429 23.1429H11.5714C11.0031 23.1429 10.4581 22.9171 10.0562 22.5153C9.65435 22.1134 9.42859 21.5684 9.42859 21C9.42859 20.4317 9.65435 19.8867 10.0562 19.4848C10.4581 19.0829 11.0031 18.8572 11.5714 18.8572H14.1429Z" stroke="#040618" stroke-width="1.5" stroke-linecap="round" stroke-linejoin="round"/>
<path d="M4.28571 10.2857V8.57146C4.28571 6.52551 5.09846 4.56335 6.54517 3.11664C7.99188 1.66993 9.95404 0.857178 12 0.857178C14.0459 0.857178 16.0081 1.66993 17.4548 3.11664C18.9015 4.56335 19.7143 6.52551 19.7143 8.57146V10.2857" stroke="#040618" stroke-width="1.5" stroke-linecap="round" stroke-linejoin="round"/>
<path d="M9.42859 6.85718V9.42861" stroke="#040618" stroke-width="1.5" stroke-linecap="round" stroke-linejoin="round"/>
<path d="M14.5714 6.85718V9.42861" stroke="#040618" stroke-width="1.5" stroke-linecap="round" stroke-linejoin="round"/>
<path d="M9.42859 12.8572C9.42859 15.1372 14.5714 15.1372 14.5714 12.8572" stroke="#040618" stroke-width="1.5" stroke-linecap="round" stroke-linejoin="round"/>
</g>
<defs>
<clipPath id="clip0_162_23163">
<rect width="24" height="24" fill="white"/>
</clipPath>
</defs>
</svg>
