<svg width="30" height="30" viewBox="0 0 30 30" fill="none" xmlns="http://www.w3.org/2000/svg">
<path d="M21.4285 3.21436H8.57138C7.38792 3.21436 6.42853 4.17375 6.42853 5.35721V16.0715C6.42853 17.255 7.38792 18.2144 8.57138 18.2144H21.4285C22.612 18.2144 23.5714 17.255 23.5714 16.0715V5.35721C23.5714 4.17375 22.612 3.21436 21.4285 3.21436Z" stroke="white" stroke-width="1.5" stroke-linecap="round" stroke-linejoin="round"/>
<path d="M6.42855 9.64307H3.21427C2.64595 9.64307 2.1009 9.86883 1.69904 10.2707C1.29718 10.6726 1.07141 11.2176 1.07141 11.7859V21.4288C1.07141 21.9971 1.29718 22.5421 1.69904 22.944C2.1009 23.3459 2.64595 23.5716 3.21427 23.5716H26.7857C27.354 23.5716 27.8991 23.3459 28.3009 22.944C28.7028 22.5421 28.9286 21.9971 28.9286 21.4288V11.7859C28.9286 11.2176 28.7028 10.6726 28.3009 10.2707C27.8991 9.86883 27.354 9.64307 26.7857 9.64307H23.5714" stroke="white" stroke-width="1.5" stroke-linecap="round" stroke-linejoin="round"/>
<path d="M8.57143 23.5713L7.5 28.9284" stroke="white" stroke-width="1.5" stroke-linecap="round" stroke-linejoin="round"/>
<path d="M21.4285 23.5713L22.5 28.9284" stroke="white" stroke-width="1.5" stroke-linecap="round" stroke-linejoin="round"/>
</svg>
