<svg width="50" height="50" viewBox="0 0 50 50" fill="none" xmlns="http://www.w3.org/2000/svg">
<rect x="0.509399" y="0.503563" width="48.9859" height="48.9859" rx="24.4929" fill="#040618"/>
<path d="M49.9852 24.9965C50.4749 12.2503 38.7183 -0.476157 25.0024 0.0137025C11.5087 0.0137025 0.509459 10.3007 0.0197826 24.0168C-0.259854 31.8495 2.46928 35.7734 5.40823 39.6923L7.36767 34.7937L7.777 42.4353C8.13054 42.789 8.52337 43.1427 8.9162 43.4964V29.2702L12.5106 27.6197V46.1097C12.8838 46.3259 13.257 46.542 13.6498 46.7385V27.0891L17.2442 25.4386V48.2712C17.6174 48.3891 17.9906 48.507 18.3834 48.6249V18.5613L21.9778 16.9108V49.3519C22.351 49.3912 22.7242 49.4305 23.117 49.4698V7.67557L24.9044 5.94642L26.7114 7.67557V49.4894C27.1239 49.4698 27.5167 49.4305 27.9292 49.3715V16.9108L31.5236 18.5613V48.6642C31.8968 48.5659 32.2896 48.448 32.6628 48.3301V25.4582L36.2572 27.1088V46.8171C36.65 46.6206 37.0232 46.4045 37.3964 46.1883V27.6393L40.9908 29.3095V43.6143C41.3836 43.2802 41.7568 42.9265 42.13 42.5729V36.403L45.7244 38.1321C48.5157 34.7937 49.9851 28.8466 49.9852 24.9965Z" fill="#DCFF09"/>
</svg>
