<svg width="177" height="50" viewBox="0 0 177 50" fill="none" xmlns="http://www.w3.org/2000/svg">
<path d="M83.5 28.756C83.5 32.592 80.42 35.28 75.38 35.28C70.312 35.28 67.148 32.564 66.84 28.308H71.152C71.264 30.52 72.692 31.948 75.296 31.948C77.452 31.948 78.992 30.996 78.992 29.372C78.992 28.112 78.012 27.356 76.304 27.02L73 26.376C69.948 25.788 67.596 24.136 67.596 20.804C67.596 17.22 70.76 14.644 75.1 14.644C79.608 14.644 82.912 17.276 83.192 21.476H78.88C78.74 19.376 77.284 17.948 75.156 17.948C73.084 17.948 71.908 19.124 71.908 20.524C71.908 21.896 73.168 22.484 74.624 22.764L78.068 23.464C81.596 24.164 83.5 25.788 83.5 28.756ZM90.1944 35H86.3024V14.896H90.1944V26.376L95.6544 20.048H100.134L93.9464 27.216L100.862 35H95.9064L90.1944 28.056V35ZM116.122 20.048L108.842 40.404H104.614L106.742 34.832L100.862 20.048H105.062L108.814 30.296L112.23 20.048H116.122ZM131.517 20.048L126.029 35H121.773L116.256 20.048H120.457L124.013 30.576L127.597 20.048H131.517ZM137.732 16.576C137.732 17.892 136.668 18.872 135.128 18.872C133.616 18.872 132.552 17.892 132.552 16.576C132.552 15.204 133.616 14.224 135.128 14.224C136.668 14.224 137.732 15.204 137.732 16.576ZM137.116 35H133.224V20.048H137.116V35ZM144.5 35H140.58V14.896H144.5V35ZM151.91 35H147.99V14.896H151.91V35ZM164.304 35V33.152C163.324 34.552 161.84 35.28 159.796 35.28C156.688 35.28 154.616 33.46 154.616 30.66C154.616 27.748 156.968 26.18 161.336 26.18C162.176 26.18 162.904 26.236 163.828 26.348V25.452C163.828 23.772 162.876 22.792 161.252 22.792C159.572 22.792 158.564 23.772 158.424 25.452H154.924C155.148 22.008 157.64 19.768 161.252 19.768C165.172 19.768 167.468 21.924 167.468 25.592V35H164.304ZM158.284 30.548C158.284 31.808 159.18 32.592 160.636 32.592C162.624 32.592 163.828 31.5 163.828 29.764V28.7C162.904 28.56 162.26 28.504 161.588 28.504C159.376 28.504 158.284 29.204 158.284 30.548Z" fill="white"/>
<path d="M175.386 32.508C175.386 34.048 174.322 35.14 172.782 35.14C171.242 35.14 170.15 34.048 170.15 32.508C170.15 30.94 171.242 29.848 172.782 29.848C174.322 29.848 175.386 30.94 175.386 32.508Z" fill="#DCFF09"/>
<rect x="0.509399" y="0.503906" width="48.9859" height="48.9859" rx="24.4929" fill="#040618"/>
<path d="M49.9852 24.9965C50.4749 12.2503 38.7183 -0.476157 25.0024 0.0137025C11.5087 0.0137025 0.509459 10.3007 0.0197826 24.0168C-0.259854 31.8495 2.46928 35.7734 5.40823 39.6923L7.36767 34.7937L7.777 42.4353C8.13054 42.789 8.52337 43.1427 8.9162 43.4964V29.2702L12.5106 27.6197V46.1097C12.8838 46.3259 13.257 46.542 13.6498 46.7385V27.0891L17.2442 25.4386V48.2712C17.6174 48.3891 17.9906 48.507 18.3834 48.6249V18.5613L21.9778 16.9108V49.3519C22.351 49.3912 22.7242 49.4305 23.117 49.4698V7.67557L24.9044 5.94642L26.7114 7.67557V49.4894C27.1239 49.4698 27.5167 49.4305 27.9292 49.3715V16.9108L31.5236 18.5613V48.6642C31.8968 48.5659 32.2896 48.448 32.6628 48.3301V25.4582L36.2572 27.1088V46.8171C36.65 46.6206 37.0232 46.4045 37.3964 46.1883V27.6393L40.9908 29.3095V43.6143C41.3836 43.2802 41.7568 42.9265 42.13 42.5729V36.403L45.7244 38.1321C48.5157 34.7937 49.9851 28.8466 49.9852 24.9965Z" fill="#DCFF09"/>
</svg>
